# xmcd CD database file
# Generated: Wed Sep 12 12:25:51 2001 by KSCD
# 
# Track frame offsets:
#       150
#       14191
#       31198
#       43762
#       55239
#       67016
#       80172
#       90972
#       106759
#       119858
#       135705
#       150266
#       162326
#       173781
#       187111
#       198604
#       212398
#       221813
#       235887
#       249474
#       261151
#       270913
#
# Disc length: 3842 seconds
#
# Revision: 4
# Processed by: cddbd v1.4b42PL1 Copyright (c) Steve Scherf et al.
# Submitted via: Kscd 1.3.0
#
DISCID=3e0f0016
DTITLE=Nelson, Miller, Young - Old Friends Funny How Time Slips Away
DYEAR=1900
DGENRE=
TTITLE0=Old Friends
TTITLE1=Husbands and Wives
TTITLE2=Half a Mind
TTITLE3=The Best I Can Give Her
TTITLE4=Sorry, Willie
TTITLE5=When a House (Is Not a Home)
TTITLE6=Aladambama
TTITLE7=Invitation to the Blues
TTITLE8=When Two Worlds Collide
TTITLE9=I'll Pick Up My Heart (And Go Home)
TTITLE10=Three Days
TTITLE11=Touch Me
TTITLE12=Congratulations
TTITLE13=Half A Man
TTITLE14=Hello Walls
TTITLE15=She's Not For You
TTITLE16=Live Fast, Love Hard, Die Young
TTITLE17=Sweet Dreams
TTITLE18=Four In The Morning
TTITLE19=Life Turned Her That Way
TTITLE20=Going Steady
TTITLE21=Funny How Time Slips Away
EXTD=
EXTT0=
EXTT1=
EXTT2=
EXTT3=
EXTT4=
EXTT5=
EXTT6=
EXTT7=
EXTT8=
EXTT9=
EXTT10=
EXTT11=
EXTT12=
EXTT13=
EXTT14=
EXTT15=
EXTT16=
EXTT17=
EXTT18=
EXTT19=
EXTT20=
EXTT21=
PLAYORDER=
